<svg width="24" height="25" viewBox="0 0 24 25" fill="none" xmlns="http://www.w3.org/2000/svg">
<g id="Iconly/Bulk/Danger">
<g id="Group">
<path id="Fill 5" opacity="0.4" d="M4.7227 21.1805C4.7097 21.1805 4.6977 21.1805 4.6837 21.1795C4.3687 21.1635 4.0597 21.0955 3.7657 20.9765C2.3187 20.3885 1.6207 18.7355 2.2077 17.2895L9.5287 4.46349C9.7807 4.00749 10.1627 3.62549 10.6287 3.36749C11.9937 2.61149 13.7197 3.10849 14.4747 4.47249L21.7477 17.2005C21.9097 17.5815 21.9787 17.8915 21.9957 18.2075C22.0347 18.9635 21.7767 19.6885 21.2707 20.2495C20.7647 20.8105 20.0697 21.1415 19.3147 21.1795L4.7947 21.1805H4.7227Z" fill="#8A92A6"/>
<path id="Combined Shape" fill-rule="evenodd" clip-rule="evenodd" d="M11.1245 10.034C11.1245 9.552 11.5175 9.159 11.9995 9.159C12.4815 9.159 12.8745 9.552 12.8745 10.034V12.862C12.8745 13.345 12.4815 13.737 11.9995 13.737C11.5175 13.737 11.1245 13.345 11.1245 12.862V10.034ZM11.1245 16.2831C11.1245 15.7981 11.5175 15.4031 11.9995 15.4031C12.4815 15.4031 12.8745 15.7931 12.8745 16.2721C12.8745 16.7651 12.4815 17.1581 11.9995 17.1581C11.5175 17.1581 11.1245 16.7651 11.1245 16.2831Z" fill="#8A92A6"/>
</g>
</g>
</svg>
