<svg width="24" height="25" viewBox="0 0 24 25" fill="none" xmlns="http://www.w3.org/2000/svg">
<g id="Iconly/Bulk/Document">
<g id="Document">
<path id="Path" opacity="0.4" d="M16.191 2.01318H7.81C4.77 2.01318 3 3.79318 3 6.84318V17.1732C3 20.2732 4.77 22.0132 7.81 22.0132H16.191C19.28 22.0132 21 20.2732 21 17.1732V6.84318C21 3.79318 19.28 2.01318 16.191 2.01318Z" fill="#8A92A6"/>
<path id="Combined Shape" fill-rule="evenodd" clip-rule="evenodd" d="M8.08002 6.66318V6.67318C7.64902 6.67318 7.30002 7.02318 7.30002 7.45318C7.30002 7.88318 7.64902 8.23318 8.08002 8.23318H11.069C11.5 8.23318 11.85 7.88318 11.85 7.44218C11.85 7.01318 11.5 6.66318 11.069 6.66318H8.08002ZM15.92 12.7532H8.08002C7.64902 12.7532 7.30002 12.4032 7.30002 11.9732C7.30002 11.5432 7.64902 11.1922 8.08002 11.1922H15.92C16.35 11.1922 16.7 11.5432 16.7 11.9732C16.7 12.4032 16.35 12.7532 15.92 12.7532ZM15.92 17.3232H8.08002C7.78002 17.3632 7.49002 17.2132 7.33002 16.9632C7.17002 16.7032 7.17002 16.3732 7.33002 16.1232C7.49002 15.8632 7.78002 15.7232 8.08002 15.7532H15.92C16.319 15.7932 16.62 16.1332 16.62 16.5432C16.62 16.9422 16.319 17.2832 15.92 17.3232Z" fill="#8A92A6"/>
</g>
</g>
</svg>
