<svg width="24" height="25" viewBox="0 0 24 25" fill="none" xmlns="http://www.w3.org/2000/svg">
<g id="Iconly/Bulk/Filter">
<g id="Filter">
<path id="Fill 1" opacity="0.4" d="M10.0833 15.9711H3.50777C2.67555 15.9711 2 16.6348 2 17.4525C2 18.269 2.67555 18.9338 3.50777 18.9338H10.0833C10.9155 18.9338 11.5911 18.269 11.5911 17.4525C11.5911 16.6348 10.9155 15.9711 10.0833 15.9711Z" fill="#8A92A6"/>
<path id="Fill 4" opacity="0.4" d="M22 6.39173C22 5.5752 21.3244 4.9115 20.4933 4.9115H13.9178C13.0856 4.9115 12.41 5.5752 12.41 6.39173C12.41 7.20936 13.0856 7.87306 13.9178 7.87306H20.4933C21.3244 7.87306 22 7.20936 22 6.39173Z" fill="#8A92A6"/>
<path id="Fill 6" d="M8.87774 6.39174C8.87774 8.25841 7.33886 9.7714 5.43887 9.7714C3.53999 9.7714 2 8.25841 2 6.39174C2 4.52617 3.53999 3.01318 5.43887 3.01318C7.33886 3.01318 8.87774 4.52617 8.87774 6.39174Z" fill="#8A92A6"/>
<path id="Fill 9" d="M22 17.4124C22 19.278 20.4611 20.791 18.5611 20.791C16.6622 20.791 15.1223 19.278 15.1223 17.4124C15.1223 15.5458 16.6622 14.0328 18.5611 14.0328C20.4611 14.0328 22 15.5458 22 17.4124Z" fill="#8A92A6"/>
</g>
</g>
</svg>
