<svg width="24" height="25" viewBox="0 0 24 25" fill="none" xmlns="http://www.w3.org/2000/svg">
<g id="Iconly/Bulk/Game">
<g id="Game">
<path id="Game 2" opacity="0.4" d="M13.3051 5.89561V6.07866C12.8144 6.06902 12.3237 6.06902 11.8331 6.06902V5.90525C11.8331 5.24051 11.2737 4.70102 10.6064 4.70102H9.63482C8.52589 4.70102 7.62305 3.81471 7.62305 2.73572C7.62305 2.34073 7.95671 2.01318 8.35906 2.01318C8.77123 2.01318 9.09508 2.34073 9.09508 2.73572C9.09508 3.02473 9.34042 3.25595 9.63482 3.25595H10.6064C12.0882 3.26558 13.2953 4.45054 13.3051 5.89561Z" fill="#8A92A6"/>
<path id="Game_2" fill-rule="evenodd" clip-rule="evenodd" d="M15.164 6.09586C15.4791 6.10018 15.7949 6.10451 16.1119 6.10775C19.5172 6.10775 22 8.53547 22 11.888V16.1944C22 19.5469 19.5172 21.9746 16.1119 21.9746C14.7478 22.0035 13.3837 22.0132 12.0098 22.0132C10.6359 22.0132 9.25221 22.0035 7.88813 21.9746C4.48283 21.9746 2 19.5469 2 16.1944V11.888C2 8.53547 4.48283 6.10775 7.89794 6.10775C9.18351 6.08848 10.4985 6.06921 11.8332 6.06921C12.3238 6.06921 12.8145 6.06921 13.3052 6.07885C13.9238 6.07885 14.5425 6.08733 15.164 6.09586ZM10.8518 14.7589H9.82139V15.7801C9.82139 16.1751 9.48773 16.5026 9.08538 16.5026C8.67321 16.5026 8.34936 16.1751 8.34936 15.7801V14.7589H7.30913C6.90677 14.7589 6.57311 14.441 6.57311 14.0364C6.57311 13.6414 6.90677 13.3138 7.30913 13.3138H8.34936V12.3023C8.34936 11.9073 8.67321 11.5798 9.08538 11.5798C9.48773 11.5798 9.82139 11.9073 9.82139 12.3023V13.3138H10.8518C11.2542 13.3138 11.5878 13.6414 11.5878 14.0364C11.5878 14.441 11.2542 14.7589 10.8518 14.7589ZM15.0226 13.1308H15.1207C15.5231 13.1308 15.8567 12.8129 15.8567 12.4083C15.8567 12.0133 15.5231 11.6857 15.1207 11.6857H15.0226C14.6104 11.6857 14.2866 12.0133 14.2866 12.4083C14.2866 12.8129 14.6104 13.1308 15.0226 13.1308ZM16.7007 16.4448H16.7988C17.2012 16.4448 17.5348 16.1269 17.5348 15.7223C17.5348 15.3273 17.2012 14.9998 16.7988 14.9998H16.7007C16.2885 14.9998 15.9647 15.3273 15.9647 15.7223C15.9647 16.1269 16.2885 16.4448 16.7007 16.4448Z" fill="#8A92A6"/>
</g>
</g>
</svg>
